# xmcd
# 
# Track frame offsets:
#     182
#     14215
#     27240
#     38972
#     52890
#     66850
#     81270
#     95032
#     107960
#     122072
#     135045
#     145447
#     157845
#     170790
#     182917
#     196407
#     208875
#     223487
#     238102
#     253205
#     263972
#     278802
#     291302
#     306222
#     317772
# 
# Disc length: 4401
# 
# Revision: 2
# Processed by: cddbd v1.5.2PL0 Copyright (c) Steve Scherf et al.
# Submitted via: fre:ac v1.0.27
# 
DISCID=90112f19
DTITLE=Django Reinhardt - Hot Club de France
DYEAR=1988
DGENRE=Jazz
TTITLE0=Stardust (1935) [Coleman Hawkins]
TTITLE1=From You (1935) [Patrick Et Son Jazz]
TTITLE2=Rendez-vous Sous La Pluie (1935) [Jean Sablon]
TTITLE3=I'se A Muggin' (1936) [Quintette Du Hot Club De France]
TTITLE4=After You're Gone (1936) [Quintette Du Hot Club De France]
TTITLE5=Georgia On My Mind (1936) [Quintette Du Hot Club De France]
TTITLE6=In The Still Of The Night (1936) [Quintette Du Hot Club De France]
TTITLE7=Charleston (1937) [Quintette Du Hot Club De France]
TTITLE8=Solitude (1937) [Quintette Du Hot Club De France]
TTITLE9=Ain't Misbehavin' (1937) [Quintette Du Hot Club De France]
TTITLE10=Mistery Pacific (1937) [Quintette Du Hot Club De France]
TTITLE11=Honeysuckle Rose (1937) [Coleman Hawkins]
TTITLE12=Hangin'around Boudon (1937) [Dicky Wells]
TTITLE13=Saint-Louis Blues (1937) [Django Reinhardt]
TTITLE14=Daphne (1937) [Eddie South and C°]
TTITLE15=Bill Coleman Blues (1937) [Bill Coleman and Django Reinhardt]
TTITLE16=Minor Swing (1937) [Quintette Du Hot Club De France]
TTITLE17=Viper's Dream (1937) [Quintette Du Hot Club De France]
TTITLE18=Taj Mahal (1937) [Michel Warlop]
TTITLE19=Montmartre (1939) [Rex Stewart Feetwarmers]
TTITLE20=Nuages (1940) [Quintette Du Hot Club De France]
TTITLE21=Swing 42 (1941) [Quintette Du Hot Club De France]
TTITLE22=Manoir De Mes Rêves (1943) [Quintette Du Hot Club De France]
TTITLE23=Djangology (1945) [Django Reinhardt]
TTITLE24=Echoes Of France (La Marseillaise) (1946) [Quintette Du Hot Club De France]
EXTD=YEAR: 1988
EXTT0=
EXTT1=
EXTT2=
EXTT3=
EXTT4=
EXTT5=
EXTT6=
EXTT7=
EXTT8=
EXTT9=
EXTT10=
EXTT11=
EXTT12=
EXTT13=
EXTT14=
EXTT15=
EXTT16=
EXTT17=
EXTT18=
EXTT19=
EXTT20=
EXTT21=
EXTT22=
EXTT23=
EXTT24=
PLAYORDER=
